HIERARCHY
ROOT Hips
{
	OFFSET -3.958830 18.904000 13.208200
	CHANNELS 6 Xposition Yposition Zposition Zrotation Yrotation Xrotation 
	JOINT LHipJoint
	{
		OFFSET 0.000000 0.000000 0.000000
		CHANNELS 3 Zrotation Yrotation Xrotation
		JOINT LeftUpLeg
		{
			OFFSET 1.800000 -1.400000 0.085000
			CHANNELS 3 Zrotation Yrotation Xrotation
			JOINT LeftLeg
			{
				OFFSET 2.215000 -6.000000 0.000000
				CHANNELS 3 Zrotation Yrotation Xrotation
				JOINT LeftFoot
				{
					OFFSET 2.500000 -6.900000 0.000000
					CHANNELS 3 Zrotation Yrotation Xrotation
					JOINT LeftToeBase
					{
						OFFSET 0.200000 -0.500000 1.950000
						CHANNELS 3 Zrotation Yrotation Xrotation
						End Site
						{
							OFFSET 0.000000 0.000000 0.000000
						}
					}
				}
			}
		}
	}
	JOINT RHipJoint
	{
		OFFSET 0.000000 0.000000 0.000000
		CHANNELS 3 Zrotation Yrotation Xrotation
		JOINT RightUpLeg
		{
			OFFSET -1.800000 -1.400000 0.085000
			CHANNELS 3 Zrotation Yrotation Xrotation
			JOINT RightLeg
			{
				OFFSET -2.215000 -6.000000 0.000000
				CHANNELS 3 Zrotation Yrotation Xrotation
				JOINT RightFoot
				{
					OFFSET -2.500000 -6.900000 0.000000
					CHANNELS 3 Zrotation Yrotation Xrotation
					JOINT RightToeBase
					{
						OFFSET -0.200000 -0.500000 1.950000
						CHANNELS 3 Zrotation Yrotation Xrotation
						End Site
						{
							OFFSET 0.000000 0.000000 0.000000
						}
					}
				}
			}
		}
	}
	JOINT LowerBack
	{
		OFFSET 0.000000 0.000000 0.000000
		CHANNELS 3 Zrotation Yrotation Xrotation
		JOINT Spine
		{
			OFFSET -0.087000 1.940000 -0.288900
			CHANNELS 3 Zrotation Yrotation Xrotation
			JOINT Spine1
			{
				OFFSET 0.000000 1.950000 0.060000
				CHANNELS 3 Zrotation Yrotation Xrotation
				JOINT Neck
				{
					OFFSET 0.000000 0.000000 0.000000
					CHANNELS 3 Zrotation Yrotation Xrotation
					JOINT Neck1
					{
						OFFSET 0.000000 1.600000 0.340000
						CHANNELS 3 Zrotation Yrotation Xrotation
						JOINT Head
						{
							OFFSET 0.000000 1.667000 -0.240000
							CHANNELS 3 Zrotation Yrotation Xrotation
							End Site
							{
								OFFSET 0.000000 0.000000 0.000000
							}
						}
					}
				}
				JOINT LeftShoulder
				{
					OFFSET 0.000000 0.000000 0.000000
					CHANNELS 3 Zrotation Yrotation Xrotation
					JOINT LeftArm
					{
						OFFSET 2.700000 1.550000 -0.730000
						CHANNELS 3 Zrotation Yrotation Xrotation
						JOINT LeftForeArm
						{
							OFFSET 5.450000 0.000000 0.000000
							CHANNELS 3 Zrotation Yrotation Xrotation
							JOINT LeftHand
							{
								OFFSET 3.450000 0.000000 0.000000
								CHANNELS 3 Zrotation Yrotation Xrotation
								JOINT LeftHandIndex1
								{
									OFFSET 0.750000 0.000000 0.000000
									CHANNELS 3 Zrotation Yrotation Xrotation
									End Site
									{
										OFFSET 0.000000 0.000000 0.000000
									}
								}
							}
						}
					}
				}
				JOINT RightShoulder
				{
					OFFSET 0.000000 0.000000 0.000000
					CHANNELS 3 Zrotation Yrotation Xrotation
					JOINT RightArm
					{
						OFFSET -2.700000 1.550000 -0.730000
						CHANNELS 3 Zrotation Yrotation Xrotation
						JOINT RightForeArm
						{
							OFFSET -5.450000 0.000000 0.000000
							CHANNELS 3 Zrotation Yrotation Xrotation
							JOINT RightHand
							{
								OFFSET -3.450000 0.000000 0.000000
								CHANNELS 3 Zrotation Yrotation Xrotation
								JOINT RightHandIndex1
								{
									OFFSET -0.750000 0.000000 0.000000
									CHANNELS 3 Zrotation Yrotation Xrotation
									End Site
									{
										OFFSET 0.000000 0.000000 0.000000
									}
								}
							}
						}
					}
				}
			}
		}
	}
}
MOTION
Frames: 11
Frame Time: 0.016667
0.727490 17.146670 -2.004060 -4.832165 5.553306 -5.333672 -15.085071 13.983887 2.792904 8.170778 0.534001 -0.231215 -3.373774 6.126660 14.672011 0.446543 4.006139 3.072956 0.249660 0.334640 0.312840 18.071871 -11.349345 3.472985 -2.188543 -1.764826 1.447751 6.420496 -4.841981 6.626693 -0.524422 -3.875530 2.923971 -0.031990 -0.296870 0.033810 -3.538726 -1.561763 -8.361236 12.020001 1.196302 12.695939 -1.687447 3.218172 10.273524 3.178576 -2.113167 -21.162568 -7.201290 -1.079219 53.174363 1.453230 -3.538860 -3.012670 -15.324008 -20.949844 11.481624 -29.021667 6.833470 -6.694647 -77.058846 -55.876686 36.308619 -3.224475 3.541738 0.198240 -0.259320 0.312850 -0.089360 10.003014 26.558102 16.491083 34.172663 -8.369409 -9.997923 52.413430 36.550993 9.430905 2.723661 -1.694527 0.218790 -0.160580 -0.239960 0.067580 
0.742390 17.145430 -2.015710 -4.653884 6.300170 -5.792959 -15.099420 14.024830 2.803614 7.666116 0.554658 0.062017 -2.497404 5.869103 14.705960 0.423005 3.943832 3.087278 0.261490 0.340970 0.318770 18.048098 -11.389239 3.441325 -2.357545 -1.730206 1.402121 6.267048 -4.937371 7.608071 -0.523421 -3.891894 2.900683 -0.020710 -0.317620 0.034380 -3.512244 -1.581176 -8.351700 11.802667 1.172397 13.266703 -1.573459 3.219384 10.489786 3.136902 -2.119379 -21.245416 -7.269256 -1.485108 53.200640 1.342510 -4.109930 -3.371920 -15.075161 -21.281951 11.284712 -27.802667 6.562569 -6.939727 -72.711935 -55.867397 33.830914 -3.184330 3.550357 0.210640 -0.274830 0.318400 -0.092190 9.869198 26.955717 16.713137 33.288845 -8.492791 -9.985322 51.494033 36.647718 9.214506 2.711348 -1.699249 0.217510 -0.171230 -0.242120 0.060370 
0.769990 17.155270 -2.040270 -4.012457 7.918769 -6.837373 -15.136252 14.085137 2.844996 6.211409 0.634557 0.738431 -0.689294 5.390202 15.061496 0.416454 3.845480 3.142712 0.270410 0.342760 0.336740 17.990209 -11.513077 3.352837 -2.826992 -1.621852 1.169185 5.544652 -5.092354 10.020145 -0.513599 -3.907624 2.892405 -0.015980 -0.314850 0.017570 -3.437394 -1.532790 -8.326321 10.688913 1.402277 14.669673 -1.219068 3.502801 10.957971 2.759055 -1.567402 -21.528253 -6.154404 -2.730932 53.212137 1.924000 -5.403330 -3.695810 -14.491550 -22.505400 10.883339 -24.889719 5.418149 -7.272715 -64.024733 -54.201690 28.155730 -3.121448 3.504429 0.218480 -0.288650 0.321540 -0.083380 10.030043 27.795831 17.393325 32.462618 -9.688021 -10.561912 48.501519 37.233521 8.408256 2.686892 -1.674932 0.206690 -0.144850 -0.257180 0.062680 
0.807170 17.152620 -2.060900 -3.760023 8.894437 -7.776109 -15.135581 14.066245 2.888475 5.669324 0.767893 1.495927 -0.582345 5.449508 15.402374 0.412975 3.923433 3.128102 0.254100 0.320580 0.326240 17.975345 -11.642430 3.233228 -3.728849 -1.324612 0.149203 6.517012 -5.689461 13.337068 -0.489739 -4.048740 2.833360 -0.010420 -0.308510 -0.003940 -3.458579 -1.339407 -8.282858 10.598998 1.862318 15.751631 -1.347965 4.065796 11.673410 2.535634 -0.860525 -21.628099 -4.626700 -4.359516 52.313427 1.902510 -6.712100 -3.645960 -13.664999 -23.587714 10.324525 -22.075558 3.917209 -7.559672 -52.888622 -52.012763 21.678294 -3.074824 3.448903 0.218150 -0.288490 0.299960 -0.088900 9.526673 28.445377 18.019891 32.108234 -10.544067 -10.949229 43.822440 37.038537 6.982355 2.645490 -1.643720 0.180710 -0.130440 -0.248220 0.056280 
0.829300 17.149590 -2.090380 -3.253846 9.892755 -9.222552 -15.176813 14.070843 2.893897 5.340542 1.014107 2.611689 0.163710 5.412840 15.928727 0.421314 4.031113 3.102814 0.247070 0.317710 0.310900 17.925517 -11.763899 3.067120 -5.381467 -0.910796 -0.771196 7.499665 -6.508183 17.432706 -0.489788 -4.340323 2.722678 -0.000940 -0.286120 -0.008080 -3.369810 -1.197049 -8.168154 9.633716 2.653194 17.325027 -0.812902 4.689521 13.555385 2.375814 -0.075320 -21.586724 -2.957537 -6.272970 50.459981 2.332980 -8.359760 -4.625840 -12.307622 -25.051914 9.671948 -19.327415 1.124456 -7.873713 -39.404212 -48.538350 14.456140 -3.047880 3.357334 0.206580 -0.278460 0.281440 -0.090800 8.509298 29.494984 18.659461 30.564634 -10.895491 -11.094568 39.037122 36.564082 5.538510 2.579470 -1.609322 0.172180 -0.107570 -0.232270 0.063670 
0.880640 17.148620 -2.116090 -2.361677 11.705329 -10.359551 -15.156190 13.962104 2.943412 4.156891 1.210559 3.671861 0.397107 5.457442 16.545352 0.424613 4.143854 3.083336 0.219000 0.283480 0.270420 17.941398 -11.908605 2.938078 -7.175112 -0.484896 -1.847600 8.453004 -7.346956 21.102866 -0.496507 -4.685603 2.589658 -0.001150 -0.247210 -0.030660 -3.492493 -0.873004 -8.120097 9.352776 2.904769 18.403019 -1.436900 5.174569 15.489651 1.874097 0.591041 -21.993579 -1.561057 -8.305735 49.373870 3.786190 -10.903780 -5.033900 -11.414243 -26.948058 9.363158 -15.924628 -0.957093 -7.703542 -26.611965 -44.136482 8.717094 -3.020011 3.228647 0.208230 -0.276820 0.248350 -0.089950 8.499286 30.867984 19.531508 29.205509 -11.306948 -10.775874 32.066676 35.026988 3.673835 2.511384 -1.550100 0.140860 -0.070970 -0.205360 0.074280 
0.920290 17.150810 -2.154630 -1.710782 13.457445 -11.751105 -15.152069 13.853209 2.954593 3.488530 1.474710 4.849314 0.743604 5.494981 16.946796 0.439546 4.223978 3.058536 0.211940 0.311860 0.230670 17.953969 -11.979722 2.847035 -8.978288 -0.028430 -2.710084 9.798609 -8.306441 24.365890 -0.534523 -5.096339 2.443898 0.026740 -0.231370 -0.072420 -3.581796 -0.623584 -8.064781 9.133637 2.966638 19.875664 -2.021314 5.499274 18.312405 1.667166 1.323072 -22.541361 0.136668 -10.202323 47.787365 5.330330 -12.768790 -6.768490 -9.834721 -28.767310 9.347649 -13.197993 -2.998893 -7.417910 -14.060610 -39.057262 4.136742 -2.993117 3.078100 0.198170 -0.285630 0.233680 -0.086420 7.243426 32.395039 20.323655 28.135227 -10.103100 -9.510154 23.052647 32.076156 1.734534 2.446388 -1.455580 0.126010 -0.022250 -0.192700 0.091410 
0.946040 17.157050 -2.194530 -0.910388 14.760808 -12.820959 -15.182104 13.789105 2.977602 2.888975 1.728916 5.740840 1.083581 5.491614 17.094118 0.447517 4.296098 3.052642 0.201760 0.311170 0.201410 17.927179 -12.005544 2.775467 -10.716956 0.554776 -4.016568 10.687004 -9.080793 27.424362 -0.572527 -5.450867 2.310434 0.035870 -0.197100 -0.098220 -3.547520 -0.495398 -8.034105 7.955840 3.172789 21.304584 -2.035328 5.780174 20.710449 1.421961 2.109292 -23.533780 2.104575 -12.130365 46.833520 7.320600 -14.825990 -8.313000 -8.616516 -30.082966 9.516811 -10.966991 -4.248629 -6.735372 -3.104880 -33.440560 1.056011 -3.004218 2.928575 0.213690 -0.295000 0.226420 -0.073790 6.453691 33.692697 21.120357 25.884195 -8.297396 -6.760859 14.735715 27.052313 0.572568 2.420823 -1.349082 0.100770 0.034320 -0.180660 0.108050 
0.975170 17.153090 -2.227860 -0.141404 15.544216 -13.158479 -15.207148 13.745858 3.009171 2.202297 1.868115 5.813630 0.491480 5.759275 17.896440 0.510869 4.352394 3.021936 0.227140 0.354870 0.206940 17.896055 -12.009319 2.735891 -12.407422 1.253194 -6.309968 11.249912 -9.679820 30.446361 -0.623379 -5.727279 2.174119 0.036800 -0.222530 -0.088390 -3.495461 -0.404261 -8.039290 6.692257 3.303328 22.496265 -2.345414 5.995752 21.081474 1.253303 3.079414 -24.429557 4.401832 -14.278313 46.713485 8.724710 -16.659470 -10.023180 -8.405461 -30.309460 9.468879 -8.252254 -4.942250 -5.648948 2.953717 -27.953942 -0.023041 -3.044504 2.867323 0.215230 -0.330590 0.267210 -0.061070 6.294840 33.852421 21.430383 23.359262 -5.157130 -2.722157 7.870422 19.591166 0.285309 2.532641 -1.237133 0.140560 0.030570 -0.202170 0.135600 
1.005430 17.147700 -2.260220 -0.137347 16.224943 -13.488216 -15.179704 13.650409 2.948326 2.391902 1.928967 5.674697 -0.049096 5.992851 18.497874 0.617416 4.365902 3.019413 0.237840 0.406750 0.127800 17.928211 -12.029828 2.766325 -13.569510 1.713099 -8.365645 12.014586 -10.000298 31.651683 -0.620290 -5.918361 2.104761 0.037790 -0.203350 -0.062840 -3.602961 -0.160864 -8.035125 6.925285 2.941180 23.016840 -2.940092 5.897697 22.550417 1.009651 3.689737 -25.206990 6.256764 -16.407764 44.416585 10.040900 -19.118630 -9.524940 -7.393015 -30.193537 9.503382 -5.713975 -5.649025 -4.577543 7.451336 -21.908639 -0.509910 -3.148865 2.914632 0.124840 -0.314750 0.252090 -0.006980 5.490741 33.986839 21.683679 20.296475 -1.697202 1.030817 3.136644 11.303684 0.397625 2.704373 -1.201529 0.213100 -0.021510 -0.228520 0.209450 
1.048190 17.144460 -2.291720 -0.894277 15.808176 -14.071101 -15.154821 13.711604 2.895716 3.722391 1.941075 5.544012 -0.883841 6.314077 18.768047 0.836335 4.314534 3.042462 0.370340 0.584210 0.161380 17.927695 -12.011959 2.828800 -14.301209 2.109133 -10.225378 12.359793 -9.821338 31.818516 -0.657151 -5.851975 2.118251 0.056170 -0.279620 -0.006000 -3.627284 -0.211635 -8.093438 8.409975 2.202162 24.276683 -3.633962 5.615287 22.317676 1.229360 3.519502 -25.844269 6.069051 -18.309633 43.601428 11.420720 -21.861930 -10.812060 -7.525123 -29.158933 9.213956 -3.632673 -6.081694 -3.767651 9.065992 -17.022554 -0.362822 -3.145278 3.047822 0.040000 -0.372980 0.339270 0.101930 4.969570 33.962415 21.383136 16.098216 1.715003 3.207631 0.703372 2.863286 0.495701 3.040394 -1.144850 0.376660 -0.121050 -0.379200 0.310730 
